<svg width="680" height="129" viewBox="0 0 680 129" fill="none" xmlns="http://www.w3.org/2000/svg">
<path d="M242.808 97H228.888L225.048 85.192H202.104L198.36 97H184.44L206.328 34.408C207.288 32.232 208.344 30.728 209.496 29.896C210.712 29.064 212.184 28.648 213.912 28.648C215.64 28.648 217.016 29.032 218.04 29.8C219.128 30.568 220.088 32.104 220.92 34.408L242.808 97ZM221.976 73.96L213.912 46.888L205.464 73.96H221.976ZM280.315 42.376L276.859 54.664C275.899 54.28 274.811 54.088 273.595 54.088C270.395 54.088 266.459 55.464 261.787 58.216V97H249.307V42.184H258.619L261.499 46.984L274.747 41.512C275.387 41.448 276.251 41.416 277.339 41.416C278.427 41.416 279.419 41.736 280.315 42.376ZM312.057 97H304.281C299.545 97 295.929 95.592 293.433 92.776C291.001 89.96 289.785 86.6 289.785 82.696V53.896H284.505V44.392H289.785V33.64H302.265V44.392H311.097V53.896H302.265V81.928C302.265 84.936 303.705 86.44 306.585 86.44H312.057V97ZM328.719 21.256C331.727 21.256 333.679 21.736 334.575 22.696C335.471 23.592 335.919 25.544 335.919 28.552C335.919 31.496 335.439 33.448 334.479 34.408C333.583 35.304 331.631 35.752 328.623 35.752C325.679 35.752 323.727 35.272 322.767 34.312C321.871 33.352 321.423 31.4 321.423 28.456C321.423 25.512 321.871 23.592 322.767 22.696C323.727 21.736 325.711 21.256 328.719 21.256ZM334.863 97H322.383V44.2H334.863V97ZM386.453 81.832V83.272C386.069 88.072 384.021 91.688 380.309 94.12C376.661 96.552 372.085 97.768 366.581 97.768C358.453 97.768 352.757 96.296 349.493 93.352C346.485 90.664 344.98 86.696 344.98 81.448V80.296H356.309C356.309 83.24 357.077 85.256 358.613 86.344C360.149 87.432 362.805 87.976 366.581 87.976C371.701 87.976 374.261 86.12 374.261 82.408C374.261 79.336 373.365 77.288 371.573 76.264C370.741 75.752 369.685 75.368 368.405 75.112L358.709 73.48C350.261 72.136 346.037 66.856 346.037 57.64C346.037 52.52 347.893 48.552 351.605 45.736C355.381 42.856 360.149 41.416 365.909 41.416C379.029 41.416 385.589 47.08 385.589 58.408V59.656H374.741C374.613 56.648 373.813 54.6 372.341 53.512C370.869 52.424 368.789 51.88 366.101 51.88C363.477 51.88 361.493 52.424 360.149 53.512C358.805 54.536 358.133 55.688 358.133 56.968C358.133 60.616 359.605 62.696 362.549 63.208L374.165 65.32C382.357 66.856 386.453 72.36 386.453 81.832ZM434.642 97H426.29L422.45 90.376L409.106 97.576C401.682 97.576 396.69 94.888 394.13 89.512C392.85 86.888 391.954 84.072 391.442 81.064C390.994 77.992 390.77 74.824 390.77 71.56C390.77 68.232 390.802 65.8 390.866 64.264C390.93 62.664 391.09 60.84 391.346 58.792C391.602 56.68 391.954 54.92 392.402 53.512C392.914 52.104 393.618 50.664 394.514 49.192C395.41 47.656 396.498 46.44 397.778 45.544C400.658 43.56 404.402 42.568 409.01 42.568H422.162L434.642 41.8V97ZM422.162 79.528V53.8H412.658C409.138 53.8 406.674 55.144 405.266 57.832C403.922 60.52 403.25 64.552 403.25 69.928C403.25 75.24 403.89 78.984 405.17 81.16C406.514 83.336 409.01 84.424 412.658 84.424L422.162 79.528ZM490.724 97H478.244V61.96C478.244 58.824 477.604 56.68 476.324 55.528C475.044 54.376 473.252 53.8 470.948 53.8L459.716 58.504V97H447.236V42.184H456.548L459.428 48.712L474.788 41.608C479.076 41.608 482.788 43.208 485.924 46.408C489.124 49.544 490.724 54.152 490.724 60.232V97Z" fill="black"/>
</svg>
