<svg width="328" height="328" viewBox="0 0 328 328" fill="none" xmlns="http://www.w3.org/2000/svg">
<g filter="url(#filter0_d_1_26)">
<rect x="4" width="320" height="320" rx="34" fill="url(#paint0_linear_1_26)"/>
</g>
<path d="M226.44 253.904C224.627 253.904 222.904 253.36 221.272 252.272C219.821 251.184 218.824 249.733 218.28 247.92L195.976 183.184L128.248 198.144L108.392 248.192C107.848 249.824 106.851 251.093 105.4 252C103.949 253.088 102.317 253.632 100.504 253.632C98.1467 253.632 96.152 252.816 94.52 251.184C93.0693 249.552 92.344 247.467 92.344 244.928C92.344 243.84 92.7067 242.299 93.432 240.304L108.392 201.952C106.76 202.496 105.128 202.768 103.496 202.768C101.32 202.587 99.5067 201.771 98.056 200.32C96.6053 198.688 95.88 196.693 95.88 194.336C95.88 192.341 96.5147 190.528 97.784 188.896C99.0533 187.264 100.595 186.267 102.408 185.904L116.008 182.912L159.528 71.664C160.253 70.032 161.432 68.7627 163.064 67.856C164.696 66.768 166.328 66.224 167.96 66.224C169.773 66.224 171.405 66.768 172.856 67.856C174.307 68.7627 175.395 70.1227 176.12 71.936L233.512 238.944C234.6 242.208 235.144 244.384 235.144 245.472C235.144 247.648 234.328 249.643 232.696 251.456C231.064 253.088 228.979 253.904 226.44 253.904ZM189.992 166.864L166.872 99.136L135.592 178.56L189.992 166.864Z" fill="white"/>
<defs>
<filter id="filter0_d_1_26" x="0" y="0" width="328" height="328" filterUnits="userSpaceOnUse" color-interpolation-filters="sRGB">
<feFlood flood-opacity="0" result="BackgroundImageFix"/>
<feColorMatrix in="SourceAlpha" type="matrix" values="0 0 0 0 0 0 0 0 0 0 0 0 0 0 0 0 0 0 127 0" result="hardAlpha"/>
<feOffset dy="4"/>
<feGaussianBlur stdDeviation="2"/>
<feComposite in2="hardAlpha" operator="out"/>
<feColorMatrix type="matrix" values="0 0 0 0 0 0 0 0 0 0 0 0 0 0 0 0 0 0 0.25 0"/>
<feBlend mode="normal" in2="BackgroundImageFix" result="effect1_dropShadow_1_26"/>
<feBlend mode="normal" in="SourceGraphic" in2="effect1_dropShadow_1_26" result="shape"/>
</filter>
<linearGradient id="paint0_linear_1_26" x1="164" y1="0" x2="164" y2="320" gradientUnits="userSpaceOnUse">
<stop stop-color="#333333"/>
<stop offset="1" stop-color="#222222"/>
</linearGradient>
</defs>
</svg>
